<mxfile modified="2023-09-20T15:23:18.527Z" host="app.diagrams.net" agent="Mozilla/5.0 (Windows NT 10.0; Win64; x64) AppleWebKit/537.36 (KHTML, like Gecko) Chrome/115.0.0.0 Safari/537.36" etag="WzScD6uX61i7bBF2KyLM" version="21.7.5" type="github">
  <diagram id="Ht1M8jgEwFfnCIfOTk4-" name="Page-1">
    <mxGraphModel dx="2100" dy="2802" grid="1" gridSize="10" guides="1" tooltips="1" connect="1" arrows="1" fold="1" page="1" pageScale="1" pageWidth="1169" pageHeight="827" math="0" shadow="0">
      <root>
        <mxCell id="0" />
        <mxCell id="1" parent="0" />
        <mxCell id="UEzPUAAOIrF-is8g5C7q-175" value="AWS Cloud" style="points=[[0,0],[0.25,0],[0.5,0],[0.75,0],[1,0],[1,0.25],[1,0.5],[1,0.75],[1,1],[0.75,1],[0.5,1],[0.25,1],[0,1],[0,0.75],[0,0.5],[0,0.25]];outlineConnect=0;html=1;whiteSpace=wrap;fontSize=12;fontStyle=0;shape=mxgraph.aws4.group;grIcon=mxgraph.aws4.group_aws_cloud_alt;verticalAlign=top;align=left;spacingLeft=30;dashed=0;labelBackgroundColor=#ffffff;container=1;pointerEvents=0;collapsible=0;recursiveResize=0;fillColor=none;" parent="1" vertex="1">
          <mxGeometry x="120" y="-960" width="1170" height="1020" as="geometry" />
        </mxCell>
        <mxCell id="eEmY7omOybEC-ZVwr5We-1" value="&lt;b&gt;&lt;font style=&quot;font-size: 15px;&quot;&gt;Availability zone 1&lt;/font&gt;&lt;/b&gt;" style="sketch=0;outlineConnect=0;html=1;whiteSpace=wrap;fontSize=12;fontStyle=0;shape=mxgraph.aws4.group;grIcon=mxgraph.aws4.group_availability_zone;fillColor=none;verticalAlign=top;align=left;spacingLeft=30;dashed=1;strokeWidth=2;" vertex="1" parent="UEzPUAAOIrF-is8g5C7q-175">
          <mxGeometry x="120" y="80" width="320" height="800" as="geometry" />
        </mxCell>
        <mxCell id="eEmY7omOybEC-ZVwr5We-2" value="&lt;font color=&quot;#000000&quot; style=&quot;font-size: 15px;&quot;&gt;&lt;b&gt;Availability zone 2&lt;/b&gt;&lt;/font&gt;" style="sketch=0;outlineConnect=0;gradientColor=none;html=1;whiteSpace=wrap;fontSize=12;fontStyle=0;shape=mxgraph.aws4.group;grIcon=mxgraph.aws4.group_availability_zone;strokeColor=#000000;fillColor=none;verticalAlign=top;align=left;spacingLeft=30;fontColor=#545B64;dashed=1;strokeWidth=2;" vertex="1" parent="UEzPUAAOIrF-is8g5C7q-175">
          <mxGeometry x="520" y="80" width="320" height="800" as="geometry" />
        </mxCell>
        <mxCell id="eEmY7omOybEC-ZVwr5We-3" value="&lt;font style=&quot;font-size: 15px;&quot;&gt;&lt;b&gt;Public subnet&lt;/b&gt;&lt;/font&gt;" style="points=[[0,0],[0.25,0],[0.5,0],[0.75,0],[1,0],[1,0.25],[1,0.5],[1,0.75],[1,1],[0.75,1],[0.5,1],[0.25,1],[0,1],[0,0.75],[0,0.5],[0,0.25]];outlineConnect=0;gradientColor=none;html=1;whiteSpace=wrap;fontSize=12;fontStyle=0;container=1;pointerEvents=0;collapsible=0;recursiveResize=0;shape=mxgraph.aws4.group;grIcon=mxgraph.aws4.group_security_group;grStroke=0;strokeColor=#248814;fillColor=#E9F3E6;verticalAlign=top;align=left;spacingLeft=30;fontColor=#248814;dashed=0;" vertex="1" parent="UEzPUAAOIrF-is8g5C7q-175">
          <mxGeometry x="160" y="160" width="240" height="300" as="geometry" />
        </mxCell>
        <mxCell id="eEmY7omOybEC-ZVwr5We-4" value="&lt;b&gt;&lt;font style=&quot;font-size: 15px;&quot;&gt;Public subnet&lt;/font&gt;&lt;/b&gt;" style="points=[[0,0],[0.25,0],[0.5,0],[0.75,0],[1,0],[1,0.25],[1,0.5],[1,0.75],[1,1],[0.75,1],[0.5,1],[0.25,1],[0,1],[0,0.75],[0,0.5],[0,0.25]];outlineConnect=0;gradientColor=none;html=1;whiteSpace=wrap;fontSize=12;fontStyle=0;container=1;pointerEvents=0;collapsible=0;recursiveResize=0;shape=mxgraph.aws4.group;grIcon=mxgraph.aws4.group_security_group;grStroke=0;strokeColor=#248814;fillColor=#E9F3E6;verticalAlign=top;align=left;spacingLeft=30;fontColor=#248814;dashed=0;" vertex="1" parent="UEzPUAAOIrF-is8g5C7q-175">
          <mxGeometry x="560" y="160" width="240" height="300" as="geometry" />
        </mxCell>
        <mxCell id="eEmY7omOybEC-ZVwr5We-5" value="&lt;b&gt;&lt;font style=&quot;font-size: 15px;&quot;&gt;Private subnet&lt;/font&gt;&lt;/b&gt;" style="points=[[0,0],[0.25,0],[0.5,0],[0.75,0],[1,0],[1,0.25],[1,0.5],[1,0.75],[1,1],[0.75,1],[0.5,1],[0.25,1],[0,1],[0,0.75],[0,0.5],[0,0.25]];outlineConnect=0;gradientColor=none;html=1;whiteSpace=wrap;fontSize=12;fontStyle=0;container=1;pointerEvents=0;collapsible=0;recursiveResize=0;shape=mxgraph.aws4.group;grIcon=mxgraph.aws4.group_security_group;grStroke=0;strokeColor=#147EBA;fillColor=#E6F2F8;verticalAlign=top;align=left;spacingLeft=30;fontColor=#147EBA;dashed=0;" vertex="1" parent="UEzPUAAOIrF-is8g5C7q-175">
          <mxGeometry x="160" y="520" width="240" height="300" as="geometry" />
        </mxCell>
        <mxCell id="eEmY7omOybEC-ZVwr5We-6" value="&lt;font style=&quot;font-size: 15px;&quot;&gt;&lt;b&gt;Private subnet&lt;/b&gt;&lt;/font&gt;" style="points=[[0,0],[0.25,0],[0.5,0],[0.75,0],[1,0],[1,0.25],[1,0.5],[1,0.75],[1,1],[0.75,1],[0.5,1],[0.25,1],[0,1],[0,0.75],[0,0.5],[0,0.25]];outlineConnect=0;gradientColor=none;html=1;whiteSpace=wrap;fontSize=12;fontStyle=0;container=1;pointerEvents=0;collapsible=0;recursiveResize=0;shape=mxgraph.aws4.group;grIcon=mxgraph.aws4.group_security_group;grStroke=0;strokeColor=#147EBA;fillColor=#E6F2F8;verticalAlign=top;align=left;spacingLeft=30;fontColor=#147EBA;dashed=0;" vertex="1" parent="UEzPUAAOIrF-is8g5C7q-175">
          <mxGeometry x="560" y="520" width="240" height="300" as="geometry" />
        </mxCell>
        <mxCell id="eEmY7omOybEC-ZVwr5We-8" value="&lt;font style=&quot;font-size: 16px;&quot;&gt;NAT Gateway&lt;/font&gt;" style="sketch=0;outlineConnect=0;fontColor=#232F3E;gradientColor=none;fillColor=#8C4FFF;strokeColor=none;dashed=0;verticalLabelPosition=bottom;verticalAlign=top;align=center;html=1;fontSize=12;fontStyle=0;aspect=fixed;pointerEvents=1;shape=mxgraph.aws4.nat_gateway;" vertex="1" parent="UEzPUAAOIrF-is8g5C7q-175">
          <mxGeometry x="240" y="210" width="58" height="58" as="geometry" />
        </mxCell>
        <mxCell id="eEmY7omOybEC-ZVwr5We-33" style="edgeStyle=orthogonalEdgeStyle;rounded=0;orthogonalLoop=1;jettySize=auto;html=1;entryX=0.75;entryY=0;entryDx=0;entryDy=0;entryPerimeter=0;strokeWidth=2;" edge="1" parent="UEzPUAAOIrF-is8g5C7q-175" source="eEmY7omOybEC-ZVwr5We-9" target="eEmY7omOybEC-ZVwr5We-20">
          <mxGeometry relative="1" as="geometry">
            <Array as="points">
              <mxPoint x="697" y="390" />
            </Array>
          </mxGeometry>
        </mxCell>
        <mxCell id="eEmY7omOybEC-ZVwr5We-9" value="&lt;font style=&quot;font-size: 15px;&quot;&gt;Bastion Host&lt;/font&gt;" style="sketch=0;points=[[0,0,0],[0.25,0,0],[0.5,0,0],[0.75,0,0],[1,0,0],[0,1,0],[0.25,1,0],[0.5,1,0],[0.75,1,0],[1,1,0],[0,0.25,0],[0,0.5,0],[0,0.75,0],[1,0.25,0],[1,0.5,0],[1,0.75,0]];outlineConnect=0;fontColor=#232F3E;fillColor=#ED7100;strokeColor=#ffffff;dashed=0;verticalLabelPosition=bottom;verticalAlign=top;align=center;html=1;fontSize=12;fontStyle=0;aspect=fixed;shape=mxgraph.aws4.resourceIcon;resIcon=mxgraph.aws4.ec2;" vertex="1" parent="UEzPUAAOIrF-is8g5C7q-175">
          <mxGeometry x="235" y="330" width="68" height="68" as="geometry" />
        </mxCell>
        <mxCell id="eEmY7omOybEC-ZVwr5We-13" value="&lt;font style=&quot;font-size: 16px;&quot;&gt;NAT Gateway&lt;/font&gt;" style="sketch=0;outlineConnect=0;fontColor=#232F3E;gradientColor=none;fillColor=#8C4FFF;strokeColor=none;dashed=0;verticalLabelPosition=bottom;verticalAlign=top;align=center;html=1;fontSize=12;fontStyle=0;aspect=fixed;pointerEvents=1;shape=mxgraph.aws4.nat_gateway;" vertex="1" parent="UEzPUAAOIrF-is8g5C7q-175">
          <mxGeometry x="651" y="210" width="58" height="58" as="geometry" />
        </mxCell>
        <mxCell id="eEmY7omOybEC-ZVwr5We-15" value="&lt;font style=&quot;font-size: 15px;&quot;&gt;&lt;b&gt;Internet Gateway&lt;/b&gt;&lt;/font&gt;" style="sketch=0;outlineConnect=0;fontColor=#232F3E;gradientColor=none;fillColor=#8C4FFF;strokeColor=none;dashed=0;verticalLabelPosition=bottom;verticalAlign=top;align=center;html=1;fontSize=12;fontStyle=0;aspect=fixed;pointerEvents=1;shape=mxgraph.aws4.internet_gateway;" vertex="1" parent="UEzPUAAOIrF-is8g5C7q-175">
          <mxGeometry x="449.5" y="90" width="61" height="61" as="geometry" />
        </mxCell>
        <mxCell id="eEmY7omOybEC-ZVwr5We-20" value="&lt;font style=&quot;font-size: 15px;&quot;&gt;EKS worker node&lt;/font&gt;" style="sketch=0;points=[[0,0,0],[0.25,0,0],[0.5,0,0],[0.75,0,0],[1,0,0],[0,1,0],[0.25,1,0],[0.5,1,0],[0.75,1,0],[1,1,0],[0,0.25,0],[0,0.5,0],[0,0.75,0],[1,0.25,0],[1,0.5,0],[1,0.75,0]];outlineConnect=0;fontColor=#232F3E;fillColor=#ED7100;strokeColor=#ffffff;dashed=0;verticalLabelPosition=bottom;verticalAlign=top;align=center;html=1;fontSize=12;fontStyle=0;aspect=fixed;shape=mxgraph.aws4.resourceIcon;resIcon=mxgraph.aws4.ec2;" vertex="1" parent="UEzPUAAOIrF-is8g5C7q-175">
          <mxGeometry x="646" y="590" width="68" height="68" as="geometry" />
        </mxCell>
        <mxCell id="eEmY7omOybEC-ZVwr5We-40" value="&lt;font style=&quot;font-size: 20px;&quot;&gt;EKS&lt;/font&gt;" style="sketch=0;points=[[0,0,0],[0.25,0,0],[0.5,0,0],[0.75,0,0],[1,0,0],[0,1,0],[0.25,1,0],[0.5,1,0],[0.75,1,0],[1,1,0],[0,0.25,0],[0,0.5,0],[0,0.75,0],[1,0.25,0],[1,0.5,0],[1,0.75,0]];outlineConnect=0;fontColor=#232F3E;fillColor=#ED7100;strokeColor=#ffffff;dashed=0;verticalLabelPosition=bottom;verticalAlign=top;align=center;html=1;fontSize=12;fontStyle=0;aspect=fixed;shape=mxgraph.aws4.resourceIcon;resIcon=mxgraph.aws4.eks;" vertex="1" parent="UEzPUAAOIrF-is8g5C7q-175">
          <mxGeometry x="994.74" y="80" width="111" height="111" as="geometry" />
        </mxCell>
        <mxCell id="eEmY7omOybEC-ZVwr5We-41" value="&lt;font style=&quot;font-size: 20px;&quot;&gt;ECR&lt;/font&gt;" style="sketch=0;points=[[0,0,0],[0.25,0,0],[0.5,0,0],[0.75,0,0],[1,0,0],[0,1,0],[0.25,1,0],[0.5,1,0],[0.75,1,0],[1,1,0],[0,0.25,0],[0,0.5,0],[0,0.75,0],[1,0.25,0],[1,0.5,0],[1,0.75,0]];outlineConnect=0;fontColor=#232F3E;fillColor=#ED7100;strokeColor=#ffffff;dashed=0;verticalLabelPosition=bottom;verticalAlign=top;align=center;html=1;fontSize=12;fontStyle=0;aspect=fixed;shape=mxgraph.aws4.resourceIcon;resIcon=mxgraph.aws4.ecr;" vertex="1" parent="UEzPUAAOIrF-is8g5C7q-175">
          <mxGeometry x="994.12" y="261" width="110" height="110" as="geometry" />
        </mxCell>
        <mxCell id="eEmY7omOybEC-ZVwr5We-42" value="&lt;font style=&quot;font-size: 20px;&quot;&gt;Lambda&lt;/font&gt;" style="sketch=0;points=[[0,0,0],[0.25,0,0],[0.5,0,0],[0.75,0,0],[1,0,0],[0,1,0],[0.25,1,0],[0.5,1,0],[0.75,1,0],[1,1,0],[0,0.25,0],[0,0.5,0],[0,0.75,0],[1,0.25,0],[1,0.5,0],[1,0.75,0]];outlineConnect=0;fontColor=#232F3E;fillColor=#ED7100;strokeColor=#ffffff;dashed=0;verticalLabelPosition=bottom;verticalAlign=top;align=center;html=1;fontSize=12;fontStyle=0;aspect=fixed;shape=mxgraph.aws4.resourceIcon;resIcon=mxgraph.aws4.lambda;" vertex="1" parent="UEzPUAAOIrF-is8g5C7q-175">
          <mxGeometry x="994.74" y="451" width="109.38" height="109.38" as="geometry" />
        </mxCell>
        <mxCell id="eEmY7omOybEC-ZVwr5We-45" value="&lt;font style=&quot;font-size: 20px;&quot;&gt;WAF&lt;/font&gt;" style="sketch=0;points=[[0,0,0],[0.25,0,0],[0.5,0,0],[0.75,0,0],[1,0,0],[0,1,0],[0.25,1,0],[0.5,1,0],[0.75,1,0],[1,1,0],[0,0.25,0],[0,0.5,0],[0,0.75,0],[1,0.25,0],[1,0.5,0],[1,0.75,0]];outlineConnect=0;fontColor=#232F3E;fillColor=#DD344C;strokeColor=#ffffff;dashed=0;verticalLabelPosition=bottom;verticalAlign=top;align=center;html=1;fontSize=12;fontStyle=0;aspect=fixed;shape=mxgraph.aws4.resourceIcon;resIcon=mxgraph.aws4.waf;" vertex="1" parent="UEzPUAAOIrF-is8g5C7q-175">
          <mxGeometry x="994.12" y="631" width="110" height="110" as="geometry" />
        </mxCell>
        <mxCell id="eEmY7omOybEC-ZVwr5We-44" value="&lt;font style=&quot;font-size: 20px;&quot;&gt;EventBridge&lt;/font&gt;" style="sketch=0;points=[[0,0,0],[0.25,0,0],[0.5,0,0],[0.75,0,0],[1,0,0],[0,1,0],[0.25,1,0],[0.5,1,0],[0.75,1,0],[1,1,0],[0,0.25,0],[0,0.5,0],[0,0.75,0],[1,0.25,0],[1,0.5,0],[1,0.75,0]];outlineConnect=0;fontColor=#232F3E;fillColor=#E7157B;strokeColor=#ffffff;dashed=0;verticalLabelPosition=bottom;verticalAlign=top;align=center;html=1;fontSize=12;fontStyle=0;aspect=fixed;shape=mxgraph.aws4.resourceIcon;resIcon=mxgraph.aws4.eventbridge;" vertex="1" parent="UEzPUAAOIrF-is8g5C7q-175">
          <mxGeometry x="994.12" y="811" width="110" height="110" as="geometry" />
        </mxCell>
        <mxCell id="eEmY7omOybEC-ZVwr5We-14" value="VPC" style="points=[[0,0],[0.25,0],[0.5,0],[0.75,0],[1,0],[1,0.25],[1,0.5],[1,0.75],[1,1],[0.75,1],[0.5,1],[0.25,1],[0,1],[0,0.75],[0,0.5],[0,0.25]];outlineConnect=0;gradientColor=none;html=1;whiteSpace=wrap;fontSize=12;fontStyle=0;container=1;pointerEvents=0;collapsible=0;recursiveResize=0;shape=mxgraph.aws4.group;grIcon=mxgraph.aws4.group_vpc;strokeColor=#248814;fillColor=none;verticalAlign=top;align=left;spacingLeft=30;fontColor=#AAB7B8;dashed=0;strokeWidth=2;" vertex="1" parent="1">
          <mxGeometry x="160" y="-840" width="880" height="720" as="geometry" />
        </mxCell>
        <mxCell id="eEmY7omOybEC-ZVwr5We-18" value="&lt;font color=&quot;#ff8000&quot; style=&quot;font-size: 15px;&quot;&gt;&lt;b&gt;Auto Scaling Group&lt;/b&gt;&lt;/font&gt;" style="sketch=0;points=[[0,0,0],[0.25,0,0],[0.5,0,0],[0.75,0,0],[1,0,0],[0,1,0],[0.25,1,0],[0.5,1,0],[0.75,1,0],[1,1,0],[0,0.25,0],[0,0.5,0],[0,0.75,0],[1,0.25,0],[1,0.5,0],[1,0.75,0]];outlineConnect=0;fontColor=#232F3E;fillColor=#ED7100;strokeColor=#ffffff;dashed=0;verticalLabelPosition=bottom;verticalAlign=top;align=center;html=1;fontSize=12;fontStyle=0;aspect=fixed;shape=mxgraph.aws4.resourceIcon;resIcon=mxgraph.aws4.auto_scaling2;" vertex="1" parent="eEmY7omOybEC-ZVwr5We-14">
          <mxGeometry x="421" y="190" width="38" height="38" as="geometry" />
        </mxCell>
        <mxCell id="eEmY7omOybEC-ZVwr5We-38" style="edgeStyle=orthogonalEdgeStyle;rounded=0;orthogonalLoop=1;jettySize=auto;html=1;entryX=0.5;entryY=0;entryDx=0;entryDy=0;entryPerimeter=0;strokeWidth=2;" edge="1" parent="eEmY7omOybEC-ZVwr5We-14" source="eEmY7omOybEC-ZVwr5We-19" target="eEmY7omOybEC-ZVwr5We-21">
          <mxGeometry relative="1" as="geometry" />
        </mxCell>
        <mxCell id="eEmY7omOybEC-ZVwr5We-19" value="&lt;font style=&quot;font-size: 15px;&quot;&gt;EKS worker node&lt;/font&gt;" style="sketch=0;points=[[0,0,0],[0.25,0,0],[0.5,0,0],[0.75,0,0],[1,0,0],[0,1,0],[0.25,1,0],[0.5,1,0],[0.75,1,0],[1,1,0],[0,0.25,0],[0,0.5,0],[0,0.75,0],[1,0.25,0],[1,0.5,0],[1,0.75,0]];outlineConnect=0;fontColor=#232F3E;fillColor=#ED7100;strokeColor=#ffffff;dashed=0;verticalLabelPosition=bottom;verticalAlign=top;align=center;html=1;fontSize=12;fontStyle=0;aspect=fixed;shape=mxgraph.aws4.resourceIcon;resIcon=mxgraph.aws4.ec2;" vertex="1" parent="eEmY7omOybEC-ZVwr5We-14">
          <mxGeometry x="195" y="470" width="68" height="68" as="geometry" />
        </mxCell>
        <mxCell id="eEmY7omOybEC-ZVwr5We-21" value="&lt;font style=&quot;font-size: 15px;&quot;&gt;RDS&lt;/font&gt;" style="sketch=0;points=[[0,0,0],[0.25,0,0],[0.5,0,0],[0.75,0,0],[1,0,0],[0,1,0],[0.25,1,0],[0.5,1,0],[0.75,1,0],[1,1,0],[0,0.25,0],[0,0.5,0],[0,0.75,0],[1,0.25,0],[1,0.5,0],[1,0.75,0]];outlineConnect=0;fontColor=#232F3E;fillColor=#C925D1;strokeColor=#ffffff;dashed=0;verticalLabelPosition=bottom;verticalAlign=top;align=center;html=1;fontSize=12;fontStyle=0;aspect=fixed;shape=mxgraph.aws4.resourceIcon;resIcon=mxgraph.aws4.rds;" vertex="1" parent="eEmY7omOybEC-ZVwr5We-14">
          <mxGeometry x="195" y="600" width="68" height="68" as="geometry" />
        </mxCell>
        <mxCell id="eEmY7omOybEC-ZVwr5We-23" value="&lt;font color=&quot;#ff8000&quot; style=&quot;font-size: 15px;&quot;&gt;&lt;b&gt;Auto Scaling Group&lt;/b&gt;&lt;/font&gt;" style="sketch=0;points=[[0,0,0],[0.25,0,0],[0.5,0,0],[0.75,0,0],[1,0,0],[0,1,0],[0.25,1,0],[0.5,1,0],[0.75,1,0],[1,1,0],[0,0.25,0],[0,0.5,0],[0,0.75,0],[1,0.25,0],[1,0.5,0],[1,0.75,0]];outlineConnect=0;fontColor=#232F3E;fillColor=#ED7100;strokeColor=#ffffff;dashed=0;verticalLabelPosition=bottom;verticalAlign=top;align=center;html=1;fontSize=12;fontStyle=0;aspect=fixed;shape=mxgraph.aws4.resourceIcon;resIcon=mxgraph.aws4.auto_scaling2;" vertex="1" parent="eEmY7omOybEC-ZVwr5We-14">
          <mxGeometry x="421" y="460" width="38" height="38" as="geometry" />
        </mxCell>
        <mxCell id="eEmY7omOybEC-ZVwr5We-32" style="edgeStyle=orthogonalEdgeStyle;rounded=0;orthogonalLoop=1;jettySize=auto;html=1;entryX=0.75;entryY=0;entryDx=0;entryDy=0;entryPerimeter=0;strokeWidth=2;" edge="1" parent="eEmY7omOybEC-ZVwr5We-14" source="eEmY7omOybEC-ZVwr5We-24" target="eEmY7omOybEC-ZVwr5We-19">
          <mxGeometry relative="1" as="geometry">
            <Array as="points">
              <mxPoint x="246" y="350" />
            </Array>
          </mxGeometry>
        </mxCell>
        <mxCell id="eEmY7omOybEC-ZVwr5We-24" value="&lt;font style=&quot;font-size: 15px;&quot;&gt;&lt;b&gt;Application Load Balancer&lt;/b&gt;&lt;/font&gt;" style="sketch=0;outlineConnect=0;fontColor=#232F3E;gradientColor=none;fillColor=#8C4FFF;strokeColor=none;dashed=0;verticalLabelPosition=bottom;verticalAlign=top;align=center;html=1;fontSize=12;fontStyle=0;aspect=fixed;pointerEvents=1;shape=mxgraph.aws4.application_load_balancer;" vertex="1" parent="eEmY7omOybEC-ZVwr5We-14">
          <mxGeometry x="406" y="310" width="68" height="68" as="geometry" />
        </mxCell>
        <mxCell id="eEmY7omOybEC-ZVwr5We-36" value="" style="whiteSpace=wrap;html=1;fillColor=none;strokeColor=#FF8000;dashed=1;strokeWidth=2;" vertex="1" parent="eEmY7omOybEC-ZVwr5We-14">
          <mxGeometry x="140" y="450" width="580" height="119" as="geometry" />
        </mxCell>
        <mxCell id="eEmY7omOybEC-ZVwr5We-29" style="edgeStyle=orthogonalEdgeStyle;rounded=0;orthogonalLoop=1;jettySize=auto;html=1;strokeWidth=2;" edge="1" parent="1" source="eEmY7omOybEC-ZVwr5We-24" target="eEmY7omOybEC-ZVwr5We-20">
          <mxGeometry relative="1" as="geometry">
            <Array as="points">
              <mxPoint x="800" y="-490" />
            </Array>
          </mxGeometry>
        </mxCell>
        <mxCell id="eEmY7omOybEC-ZVwr5We-30" style="edgeStyle=orthogonalEdgeStyle;rounded=0;orthogonalLoop=1;jettySize=auto;html=1;strokeWidth=2;" edge="1" parent="1" source="eEmY7omOybEC-ZVwr5We-15" target="eEmY7omOybEC-ZVwr5We-24">
          <mxGeometry relative="1" as="geometry" />
        </mxCell>
        <mxCell id="eEmY7omOybEC-ZVwr5We-31" style="edgeStyle=orthogonalEdgeStyle;rounded=0;orthogonalLoop=1;jettySize=auto;html=1;strokeWidth=2;" edge="1" parent="1" source="eEmY7omOybEC-ZVwr5We-9" target="eEmY7omOybEC-ZVwr5We-19">
          <mxGeometry relative="1" as="geometry" />
        </mxCell>
        <mxCell id="eEmY7omOybEC-ZVwr5We-35" style="edgeStyle=orthogonalEdgeStyle;rounded=0;orthogonalLoop=1;jettySize=auto;html=1;entryX=0;entryY=0.75;entryDx=0;entryDy=0;entryPerimeter=0;strokeWidth=2;" edge="1" parent="1" source="eEmY7omOybEC-ZVwr5We-9" target="eEmY7omOybEC-ZVwr5We-21">
          <mxGeometry relative="1" as="geometry">
            <Array as="points">
              <mxPoint x="260" y="-570" />
              <mxPoint x="260" y="-189" />
            </Array>
          </mxGeometry>
        </mxCell>
        <mxCell id="eEmY7omOybEC-ZVwr5We-37" value="" style="whiteSpace=wrap;html=1;fillColor=none;strokeColor=#FF8000;dashed=1;strokeWidth=2;" vertex="1" parent="1">
          <mxGeometry x="320" y="-639" width="580" height="119" as="geometry" />
        </mxCell>
        <mxCell id="eEmY7omOybEC-ZVwr5We-39" style="edgeStyle=orthogonalEdgeStyle;rounded=0;orthogonalLoop=1;jettySize=auto;html=1;entryX=1;entryY=0.75;entryDx=0;entryDy=0;entryPerimeter=0;strokeWidth=2;" edge="1" parent="1" source="eEmY7omOybEC-ZVwr5We-20" target="eEmY7omOybEC-ZVwr5We-21">
          <mxGeometry relative="1" as="geometry">
            <Array as="points">
              <mxPoint x="800" y="-190" />
              <mxPoint x="594" y="-190" />
            </Array>
          </mxGeometry>
        </mxCell>
      </root>
    </mxGraphModel>
  </diagram>
</mxfile>
